<?xml version="1.0" standalone="no"?>
<!DOCTYPE svg PUBLIC "-//W3C//DTD SVG 20010904//EN"
 "http://www.w3.org/TR/2001/REC-SVG-20010904/DTD/svg10.dtd">
<svg version="1.0" xmlns="http://www.w3.org/2000/svg"
 width="512.000000pt" height="512.000000pt" viewBox="0 0 512.000000 512.000000"
 preserveAspectRatio="xMidYMid meet">
<metadata>
Created by potrace 1.14, written by Peter Selinger 2001-2017
</metadata>
<g transform="translate(0.000000,512.000000) scale(0.100000,-0.100000)"
fill="#000000" stroke="none">
<path d="M1740 4864 c-41 -7 -88 -16 -105 -18 -122 -21 -308 -103 -485 -212
-137 -85 -130 -75 -86 -120 46 -48 81 -105 106 -176 22 -63 27 -109 35 -285 3
-73 8 -140 9 -150 2 -10 7 -45 11 -78 13 -112 20 -140 36 -143 15 -3 17 14 21
130 4 119 7 138 30 183 48 93 131 150 230 161 44 5 85 -1 185 -25 175 -42 237
-49 388 -46 126 3 192 13 359 56 133 35 226 16 310 -61 73 -67 89 -113 94
-267 3 -100 8 -133 17 -133 8 0 16 20 20 53 4 28 9 59 10 67 3 17 15 132 21
200 2 25 7 112 10 193 6 179 -5 233 -63 291 -45 45 -80 62 -156 75 -49 9 -68
19 -113 60 -135 124 -297 204 -499 247 -60 12 -310 11 -385 -2z"/>
<path d="M1533 3993 c-34 -7 -81 -59 -89 -99 -7 -40 2 -714 10 -759 3 -16 10
-59 15 -95 16 -108 21 -122 61 -205 156 -323 529 -446 842 -278 174 94 302
295 323 508 4 39 10 79 12 90 8 33 16 681 9 729 -8 53 -43 91 -96 107 -32 10
-56 7 -166 -19 -71 -17 -160 -35 -199 -41 -68 -9 -328 -7 -371 3 -12 2 -38 7
-59 10 -21 4 -82 17 -136 31 -96 25 -112 26 -156 18z"/>
<path d="M1224 3509 c-41 -12 -91 -69 -100 -114 -15 -81 32 -165 104 -185 62
-17 62 -17 57 58 -2 37 -4 109 -4 160 -1 99 0 98 -57 81z"/>
<path d="M2879 3423 c0 -54 -2 -127 -5 -162 l-3 -64 35 6 c48 8 103 51 121 96
38 90 -24 203 -118 218 l-29 4 -1 -98z"/>
<path d="M1656 2413 c-19 -78 -117 -203 -197 -250 -16 -9 -29 -20 -29 -24 0
-7 66 -52 140 -96 53 -32 176 -78 260 -98 105 -25 349 -29 455 -9 100 20 182
46 265 88 80 40 180 103 179 113 0 5 -28 28 -62 53 -63 46 -141 148 -153 198
-12 50 -22 54 -69 27 -53 -31 -174 -74 -235 -83 -25 -4 -90 -7 -145 -7 -118 0
-205 21 -315 74 -41 20 -78 37 -81 39 -4 2 -10 -10 -13 -25z"/>
<path d="M1160 2044 c-47 -13 -94 -26 -105 -28 -11 -3 -96 -26 -190 -51 -212
-59 -287 -96 -380 -189 -113 -114 -164 -232 -180 -416 -4 -41 -8 -86 -10 -100
-2 -14 -6 -56 -9 -95 -4 -38 -9 -88 -12 -110 -2 -22 -6 -60 -8 -85 -2 -25 -7
-73 -11 -107 l-8 -63 322 0 c347 0 372 -3 385 -52 3 -13 6 -132 6 -265 l0
-243 440 0 440 0 0 129 c0 71 3 137 6 146 17 43 40 45 509 45 l445 0 0 689 c0
379 3 697 6 706 14 35 58 45 206 46 l143 0 -128 36 -127 35 -41 -37 c-103 -92
-298 -195 -449 -235 -146 -39 -384 -49 -545 -24 -107 17 -244 62 -340 111 -81
41 -201 122 -235 158 -28 30 -23 30 -130 -1z"/>
<path d="M2960 1040 l0 -800 960 0 960 0 0 800 0 800 -960 0 -960 0 0 -800z
m1123 319 c34 -17 63 -33 65 -34 3 -3 -305 -625 -314 -634 -4 -5 -144 60 -144
66 0 12 317 633 323 633 4 0 36 -14 70 -31z m-483 -78 c27 -27 50 -53 50 -58
0 -5 -38 -46 -85 -92 -47 -45 -85 -86 -85 -89 0 -4 38 -45 85 -92 47 -47 85
-88 85 -93 0 -11 -97 -107 -107 -107 -5 0 -65 57 -134 128 -168 171 -168 155
-2 323 70 71 131 129 135 129 5 0 30 -22 58 -49z m828 -74 c172 -173 172 -160
6 -327 -70 -72 -132 -130 -137 -130 -9 0 -107 100 -107 110 0 3 38 43 85 89
47 47 85 87 85 90 0 4 -38 45 -85 91 -47 47 -85 89 -85 93 0 11 93 106 105
106 6 1 66 -55 133 -122z"/>
<path d="M320 440 l0 -200 240 0 240 0 0 200 0 200 -240 0 -240 0 0 -200z"/>
<path d="M2000 320 l0 -80 400 0 400 0 0 80 0 80 -400 0 -400 0 0 -80z"/>
</g>
</svg>
